<?xml version="1.0" encoding="UTF-8"?>
<svg width="186px" height="107px" viewBox="0 0 186 107" version="1.1" xmlns="http://www.w3.org/2000/svg" xmlns:xlink="http://www.w3.org/1999/xlink">
    <!-- Generator: Sketch 52.6 (67491) - http://www.bohemiancoding.com/sketch -->
    <title>laptop</title>
    <desc>Created with Sketch.</desc>
    <defs>
        <rect id="path-1" x="0.0934047539" y="0.532019704" width="145.932476" height="91.4592624" rx="1.66153846"></rect>
        <rect id="path-3" x="0.0934047539" y="0.532019704" width="145.932476" height="91.4592624" rx="1.66153846"></rect>
        <rect id="path-5" x="0.0934047539" y="0.532019704" width="145.932476" height="91.4592624" rx="1.66153846"></rect>
        <rect id="path-7" x="0.0934047539" y="0.532019704" width="145.932476" height="91.4592624" rx="1.66153846"></rect>
        <rect id="path-9" x="0" y="0" width="107.446602" height="72"></rect>
        <rect id="path-11" x="0" y="0" width="107.446602" height="72"></rect>
        <rect id="path-13" x="0" y="0" width="107.446602" height="72"></rect>
        <rect id="path-15" x="0" y="0" width="107.446602" height="72"></rect>
        <rect id="path-17" x="0" y="0" width="107.446602" height="72"></rect>
        <rect id="path-19" x="0" y="0" width="107.446602" height="72"></rect>
        <rect id="path-21" x="0" y="0" width="107.446602" height="72"></rect>
    </defs>
    <g id="Page-1" stroke="none" stroke-width="1" fill="none" fill-rule="evenodd">
        <g id="login-window" transform="translate(-54.000000, -59.000000)">
            <g id="Group-2" transform="translate(24.000000, 58.000000)">
                <g id="laptop" transform="translate(30.000000, 1.000000)">
                    <g fill="#1E253F" fill-rule="nonzero">
                        <path d="M16.823887,101.487765 L16.823887,5.682329 C16.823887,2.54675884 19.3657689,0.004877 22.501339,0.004877 L163.401836,0.004877 C166.537407,0.004877 169.079288,2.54675884 169.079288,5.682329 L169.079288,101.487765 C169.079288,102.44438 168.303799,103.219869 167.347184,103.219869 L145.975693,103.219869 L18.555991,103.219869 C17.5993764,103.219869 16.823887,102.44438 16.823887,101.487765 Z M23.3335284,8.14544279 C23.2272378,8.14544279 23.1410724,8.23160828 23.1410724,8.33789879 L23.1410724,95.565261 C23.1410724,95.6715515 23.2272378,95.757717 23.3335284,95.757717 L162.763296,95.757717 C162.869587,95.757717 162.955752,95.6715515 162.955752,95.565261 L162.955752,8.33789879 C162.955752,8.23160828 162.869587,8.14544279 162.763296,8.14544279 L23.3335284,8.14544279 Z" id="Combined-Shape"></path>
                        <path d="M186,104.67401 C186,104.67401 184.084398,107 144.322065,106.916929 C131.214211,106.889544 112.433786,106.889022 93.1452369,106.900627 C73.6290688,106.88902 54.8077024,106.889498 41.6779121,106.916929 C1.91560135,107 0,104.67401 0,104.67401 L93.0484123,104.67401 L186,104.67401 Z" id="Combined-Shape"></path>
                        <path d="M0.192456,103.511016 L185.807544,103.511016 C185.913835,103.511016 186,103.597181 186,103.703472 L186,104.67401 L-2.77555756e-17,104.67401 L0,103.703472 C-4.07724094e-17,103.597181 0.0861654862,103.511016 0.192456,103.511016 Z" id="Rectangle-5"></path>
                    </g>
                    <g id="Screen" transform="translate(19.922789, 7.168067)">
                        <g id="path-1-link" fill="#FFFFFF" fill-rule="nonzero">
                            <rect id="path-1" x="0.0934047539" y="0.532019704" width="145.932476" height="91.4592624" rx="1.66153846"></rect>
                        </g>
                        <g id="Rectangle-2-Clipped">
                            <mask id="mask-2" fill="white">
                                <use xlink:href="#path-1"></use>
                            </mask>
                            <g id="path-1"></g>
                            <rect id="Rectangle-2" fill="#253D55" fill-rule="nonzero" mask="url(#mask-2)" x="2.70873786" y="0.907563025" width="23.4757282" height="88.0336134"></rect>
                        </g>
                        <g id="Group-6-Clipped">
                            <mask id="mask-4" fill="white">
                                <use xlink:href="#path-3"></use>
                            </mask>
                            <g id="path-1"></g>
                            <g id="Group-6" mask="url(#mask-4)">
                                <g transform="translate(6.000000, 14.000000)" id="Rectangle-4">
                                    <g transform="translate(0.077211, 0.831933)">
                                        <rect id="Rectangle-path" fill="#F58020" fill-rule="nonzero" x="0.699029126" y="0.546218487" width="16.3009709" height="3" rx="1.5"></rect>
                                        <rect id="Rectangle-path" fill="#FFFFFF" fill-rule="nonzero" opacity="0.394474638" x="0.699029126" y="7.54621849" width="16.3009709" height="1.45378151" rx="0.726890755"></rect>
                                        <path d="M1.42591988,12.0462185 L13.2731093,12.0462185 C13.6745599,12.0462185 14,12.3716586 14,12.7731093 L14,12.7731093 C14,13.1745599 13.6745599,13.5 13.2731093,13.5 L1.42591988,13.5 C1.0244692,13.5 0.699029126,13.1745599 0.699029126,12.7731093 L0.699029126,12.7731093 C0.699029126,12.3716586 1.0244692,12.0462185 1.42591988,12.0462185 Z" id="Rectangle-path" fill="#FFFFFF" fill-rule="nonzero" opacity="0.394474638"></path>
                                        <path d="M1.42591988,16.5462185 L16.2731093,16.5462185 C16.6745599,16.5462185 17,16.8716586 17,17.2731093 L17,17.2731093 C17,17.6745599 16.6745599,18 16.2731093,18 L1.42591988,18 C1.0244692,18 0.699029126,17.6745599 0.699029126,17.2731093 L0.699029126,17.2731093 C0.699029126,16.8716586 1.0244692,16.5462185 1.42591988,16.5462185 Z" id="Rectangle-path" fill="#FFFFFF" fill-rule="nonzero" opacity="0.394474638"></path>
                                        <path d="M1.42591988,21.0462185 L14.2731093,21.0462185 C14.6745599,21.0462185 15,21.3716586 15,21.7731093 L15,21.7731093 C15,22.1745599 14.6745599,22.5 14.2731093,22.5 L1.42591988,22.5 C1.0244692,22.5 0.699029126,22.1745599 0.699029126,21.7731093 L0.699029126,21.7731093 C0.699029126,21.3716586 1.0244692,21.0462185 1.42591988,21.0462185 Z" id="Rectangle-path" fill="#FFFFFF" fill-rule="nonzero" opacity="0.394474638"></path>
                                        <path d="M1.42591988,25.5462185 L16.2731093,25.5462185 C16.6745599,25.5462185 17,25.8716586 17,26.2731093 L17,26.2731093 C17,26.6745599 16.6745599,27 16.2731093,27 L1.42591988,27 C1.0244692,27 0.699029126,26.6745599 0.699029126,26.2731093 L0.699029126,26.2731093 C0.699029126,25.8716586 1.0244692,25.5462185 1.42591988,25.5462185 Z" id="Rectangle-path" fill="#FFFFFF" fill-rule="nonzero" opacity="0.394474638"></path>
                                        <rect id="Rectangle-path" fill="#F58020" fill-rule="nonzero" x="0.699029126" y="34.5462185" width="16.3009709" height="3" rx="1.5"></rect>
                                        <path d="M1.42591988,41.5462185 L16.2731093,41.5462185 C16.6745599,41.5462185 17,41.8716586 17,42.2731093 L17,42.2731093 C17,42.6745599 16.6745599,43 16.2731093,43 L1.42591988,43 C1.0244692,43 0.699029126,42.6745599 0.699029126,42.2731093 L0.699029126,42.2731093 C0.699029126,41.8716586 1.0244692,41.5462185 1.42591988,41.5462185 Z" id="Rectangle-path" fill="#FFFFFF" fill-rule="nonzero" opacity="0.394474638"></path>
                                        <path d="M1.42591988,46.0462185 L13.2731093,46.0462185 C13.6745599,46.0462185 14,46.3716586 14,46.7731093 L14,46.7731093 C14,47.1745599 13.6745599,47.5 13.2731093,47.5 L1.42591988,47.5 C1.0244692,47.5 0.699029126,47.1745599 0.699029126,46.7731093 L0.699029126,46.7731093 C0.699029126,46.3716586 1.0244692,46.0462185 1.42591988,46.0462185 Z" id="Rectangle-path" fill="#FFFFFF" fill-rule="nonzero" opacity="0.394474638"></path>
                                        <path d="M1.42591988,50.5462185 L16.2731093,50.5462185 C16.6745599,50.5462185 17,50.8716586 17,51.2731093 L17,51.2731093 C17,51.6745599 16.6745599,52 16.2731093,52 L1.42591988,52 C1.0244692,52 0.699029126,51.6745599 0.699029126,51.2731093 L0.699029126,51.2731093 C0.699029126,50.8716586 1.0244692,50.5462185 1.42591988,50.5462185 Z" id="Rectangle-path" fill="#FFFFFF" fill-rule="nonzero" opacity="0.394474638"></path>
                                        <path d="M1.42591988,55.0462185 L14.2731093,55.0462185 C14.6745599,55.0462185 15,55.3716586 15,55.7731093 L15,55.7731093 C15,56.1745599 14.6745599,56.5 14.2731093,56.5 L1.42591988,56.5 C1.0244692,56.5 0.699029126,56.1745599 0.699029126,55.7731093 L0.699029126,55.7731093 C0.699029126,55.3716586 1.0244692,55.0462185 1.42591988,55.0462185 Z" id="Rectangle-path" fill="#FFFFFF" fill-rule="nonzero" opacity="0.394474638"></path>
                                        <path d="M1.42591988,59.5462185 L16.2731093,59.5462185 C16.6745599,59.5462185 17,59.8716586 17,60.2731093 L17,60.2731093 C17,60.6745599 16.6745599,61 16.2731093,61 L1.42591988,61 C1.0244692,61 0.699029126,60.6745599 0.699029126,60.2731093 L0.699029126,60.2731093 C0.699029126,59.8716586 1.0244692,59.5462185 1.42591988,59.5462185 Z" id="Rectangle-path" fill="#FFFFFF" fill-rule="nonzero" opacity="0.394474638"></path>
                                    </g>
                                </g>
                            </g>
                        </g>
                        <g id="Rectangle-2-Clipped">
                            <mask id="mask-6" fill="white">
                                <use xlink:href="#path-5"></use>
                            </mask>
                            <g id="path-1"></g>
                            <rect id="Rectangle-2" fill="#F5A623" fill-rule="nonzero" mask="url(#mask-6)" x="25.7087379" y="0.907563025" width="120.291262" height="2.09243697"></rect>
                        </g>
                        <g id="Path-8-Clipped">
                            <mask id="mask-8" fill="white">
                                <use xlink:href="#path-7"></use>
                            </mask>
                            <g id="path-1"></g>
                            <g id="Path-8" mask="url(#mask-8)">
                                <g transform="translate(30.000000, 12.000000)" id="Group">
                                    <g transform="translate(0.640318, 0.445378)">
                                        <g id="Mask" fill="#F7F8F9">
                                            <rect id="path-3" x="0" y="0" width="107.446602" height="72"></rect>
                                        </g>
                                        <g id="Path-7-Clipped">
                                            <mask id="mask-10" fill="white">
                                                <use xlink:href="#path-9"></use>
                                            </mask>
                                            <g id="path-3"></g>
                                        </g>
                                        <g id="Path-8-Clipped">
                                            <mask id="mask-12" fill="white">
                                                <use xlink:href="#path-11"></use>
                                            </mask>
                                            <g id="path-3"></g>
                                            <path d="M-27.14609,49.7849326 C-7.70589385,23.5236632 17.9995411,105.277311 89.3296382,17.2436975 C116.523833,-16.3186179 138.531782,34.8224902 152.705854,28.5292275 C166.879926,22.2359648 166.49312,39.2712908 175.735009,39.2712908 L175.735009,93.8370509 L-5.80651477,93.8370509 C-5.80651477,93.8370509 -46.5862861,76.046202 -27.14609,49.7849326 Z" id="Path-8" stroke="#F58020" fill-opacity="0.36" fill="#FF9844" mask="url(#mask-12)"></path>
                                        </g>
                                        <g id="Combined-Shape-Clipped">
                                            <mask id="mask-14" fill="white">
                                                <use xlink:href="#path-13"></use>
                                            </mask>
                                            <g id="path-3"></g>
                                            <ellipse id="Combined-Shape" stroke="#FFFFFF" stroke-width="1.35" fill="#F58020" mask="url(#mask-14)" cx="89.7851194" cy="15.4285714" rx="3.61165049" ry="3.6302521"></ellipse>
                                        </g>
                                        <g id="Combined-Shape-Copy-Clipped">
                                            <mask id="mask-16" fill="white">
                                                <use xlink:href="#path-15"></use>
                                            </mask>
                                            <g id="path-3"></g>
                                            <ellipse id="Combined-Shape-Copy" stroke="#FFFFFF" stroke-width="1.35" fill="#F58020" mask="url(#mask-16)" cx="71.726867" cy="36.302521" rx="3.61165049" ry="3.6302521"></ellipse>
                                        </g>
                                        <g id="Combined-Shape-Copy-2-Clipped">
                                            <mask id="mask-18" fill="white">
                                                <use xlink:href="#path-17"></use>
                                            </mask>
                                            <g id="path-3"></g>
                                            <ellipse id="Combined-Shape-Copy-2" stroke="#FFFFFF" stroke-width="1.35" fill="#F58020" mask="url(#mask-18)" cx="50.9598767" cy="52.6386555" rx="3.61165049" ry="3.6302521"></ellipse>
                                        </g>
                                        <g id="Combined-Shape-Copy-3-Clipped">
                                            <mask id="mask-20" fill="white">
                                                <use xlink:href="#path-19"></use>
                                            </mask>
                                            <g id="path-3"></g>
                                            <ellipse id="Combined-Shape-Copy-3" stroke="#FFFFFF" stroke-width="1.35" fill="#F58020" mask="url(#mask-20)" cx="32.9016243" cy="58.9915966" rx="3.61165049" ry="3.6302521"></ellipse>
                                        </g>
                                        <g id="Combined-Shape-Copy-4-Clipped">
                                            <mask id="mask-22" fill="white">
                                                <use xlink:href="#path-21"></use>
                                            </mask>
                                            <g id="path-3"></g>
                                            <ellipse id="Combined-Shape-Copy-4" stroke="#FFFFFF" stroke-width="1.35" fill="#F58020" mask="url(#mask-22)" cx="19.357935" cy="58.9915966" rx="3.61165049" ry="3.6302521"></ellipse>
                                        </g>
                                    </g>
                                </g>
                            </g>
                        </g>
                    </g>
                </g>
            </g>
        </g>
    </g>
</svg>