<?xml version="1.0" encoding="UTF-8"?>
<svg width="186px" height="108px" viewBox="0 0 186 108" version="1.1" xmlns="http://www.w3.org/2000/svg" xmlns:xlink="http://www.w3.org/1999/xlink">
    <!-- Generator: Sketch 56.2 (81672) - https://sketch.com -->
    <title>laptop</title>
    <desc>Created with Sketch.</desc>
    <defs>
        <linearGradient x1="87.2406572%" y1="8.43954086%" x2="4.74495275%" y2="8.43954086%" id="linearGradient-1">
            <stop stop-color="#1E253F" offset="0%"></stop>
            <stop stop-color="#004990" offset="100%"></stop>
        </linearGradient>
    </defs>
    <g id="Page-1" stroke="none" stroke-width="1" fill="none" fill-rule="evenodd">
        <g id="Desktop-HD" transform="translate(-698.000000, -154.000000)">
            <g id="Group-5" transform="translate(67.000000, 99.000000)">
                <g id="coveo-cloud-v2" transform="translate(601.000000, 55.250000)">
                    <g id="Group-3">
                        <g id="laptop" transform="translate(30.000000, 0.000000)">
                            <path d="M16.823887,101.487765 L16.823887,5.682329 C16.823887,2.54675884 19.3657689,0.004877 22.501339,0.004877 L163.401836,0.004877 C166.537407,0.004877 169.079288,2.54675884 169.079288,5.682329 L169.079288,101.487765 C169.079288,102.44438 168.303799,103.219869 167.347184,103.219869 L145.975693,103.219869 L18.555991,103.219869 L18.555991,103.219869 C17.5993764,103.219869 16.823887,102.44438 16.823887,101.487765 L16.823887,101.487765 Z M23.3335284,8.14544279 C23.2272378,8.14544279 23.1410724,8.23160828 23.1410724,8.33789879 L23.1410724,95.565261 C23.1410724,95.6715515 23.2272378,95.757717 23.3335284,95.757717 L162.763296,95.757717 C162.869587,95.757717 162.955752,95.6715515 162.955752,95.565261 L162.955752,8.33789879 C162.955752,8.23160828 162.869587,8.14544279 162.763296,8.14544279 L23.3335284,8.14544279 Z" id="Combined-Shape" fill="#1E253F" fill-rule="nonzero"></path>
                            <path d="M186,104.67401 C186,104.67401 184.084398,107 144.322065,106.916929 C131.214211,106.889544 112.433786,106.889022 93.1452369,106.900627 C73.6290688,106.88902 54.8077024,106.889498 41.6779121,106.916929 C1.91560135,107 0,104.67401 0,104.67401 L93.0484123,104.67401 L186,104.67401 Z" id="Combined-Shape" fill="#1E253F" fill-rule="nonzero"></path>
                            <path d="M0.192456,103.511016 L185.807544,103.511016 L185.807544,103.511016 C185.913835,103.511016 186,103.597181 186,103.703472 L186,104.67401 L0,104.67401 L0,103.703472 L0,103.703472 C0,103.597181 0.0861654862,103.511016 0.192456,103.511016 Z" id="Rectangle-5" fill="#1E253F" fill-rule="nonzero"></path>
                            <rect id="Rectangle" fill="url(#linearGradient-1)" x="23" y="8" width="140" height="90"></rect>
                            <rect id="Rectangle" fill="#FFFFFF" x="23" y="8" width="140" height="88"></rect>
                            <g id="Group-23" transform="translate(69.000000, 22.000000)" stroke="#0061C0" stroke-linecap="round" stroke-linejoin="round" stroke-width="1.5">
                                <g>
                                    <path d="M24.3010865,31.7255319 C27.7390324,31.7255319 30.5254108,34.5010213 30.5254108,37.9255319 C30.5254108,41.3500426 27.7390324,44.1255319 24.3010865,44.1255319 C20.8631405,44.1255319 18.0767622,41.3500426 18.0767622,37.9255319 C18.0767622,34.5010213 20.8631405,31.7255319 24.3010865,31.7255319 Z" id="Stroke-1"></path>
                                    <path d="M35.4259405,61.8018638 C35.0286432,54.9422894 30.2610757,49.5337787 24.3016162,49.5337787 C18.3421568,49.5337787 13.5745892,54.9422894 13.1772919,61.8018638 L35.4259405,61.8018638 Z" id="Stroke-3"></path>
                                    <path d="M8.93945405,34.495217 C11.352373,34.495217 13.3097243,36.4449191 13.3097243,38.8497277 C13.3097243,41.253217 11.352373,43.2029191 8.93945405,43.2029191 C6.52521081,43.2029191 4.56918378,41.253217 4.56918378,38.8497277 C4.56918378,36.4449191 6.52521081,34.495217 8.93945405,34.495217 Z" id="Stroke-5"></path>
                                    <path d="M14.6337838,49.9295234 C13.177027,48.2146298 11.1905405,47.1593106 8.93918919,47.1593106 C4.70135135,47.1593106 1.25810811,50.9848426 0.993243243,55.8656936 L11.1905405,55.8656936" id="Stroke-7"></path>
                                    <path d="M35.822973,19.5890979 L17.8121622,19.5890979 L11.8527027,25.3933532 L11.5878378,19.5890979 L4.03918919,19.5890979 C2.97972973,19.5890979 2.0527027,18.6656936 2.0527027,17.6103745 L2.0527027,2.96782128 C2.0527027,1.91250213 2.97972973,0.989097872 4.03918919,0.989097872 L35.822973,0.989097872 C36.8824324,0.989097872 37.8094595,1.91250213 37.8094595,2.96782128 L37.8094595,17.6103745 C37.677027,18.6656936 36.8824324,19.5890979 35.822973,19.5890979 Z" id="Stroke-9"></path>
                                    <path d="M19.0037892,23.5465447 L32.5118973,23.5465447 L38.4713568,29.3508 L38.7362216,23.5465447 L46.2861946,23.5465447 C47.3443297,23.5465447 48.2726811,22.6231404 48.2726811,21.5678213 L48.2726811,6.92526809 C48.2726811,5.86994894 47.3443297,4.94654468 46.2861946,4.94654468 L41.5173027,4.94654468" id="Stroke-11"></path>
                                    <path d="M39.7959459,34.495217 C42.2088649,34.495217 44.1662162,36.4449191 44.1662162,38.8497277 C44.1662162,41.253217 42.2088649,43.2029191 39.7959459,43.2029191 C37.383027,43.2029191 35.4256757,41.253217 35.4256757,38.8497277 C35.4256757,36.4449191 37.383027,34.495217 39.7959459,34.495217 Z" id="Stroke-13"></path>
                                    <path d="M34.1016162,49.9295234 C35.558373,48.2146298 37.5448595,47.1593106 39.7962108,47.1593106 C44.0340486,47.1593106 47.4772919,50.9848426 47.7421568,55.8656936 L37.5448595,55.8656936" id="Stroke-15"></path>
                                    <path d="M14.8989135,9.69548085 C15.4101027,9.69548085 15.8259405,10.1083745 15.8259405,10.6188851 C15.8259405,11.1293957 15.4101027,11.5422894 14.8989135,11.5422894 C14.3864,11.5422894 13.9718865,11.1293957 13.9718865,10.6188851 C13.9718865,10.1083745 14.3864,9.69548085 14.8989135,9.69548085 Z" id="Stroke-17"></path>
                                    <path d="M20.0636459,9.69548085 C20.5761595,9.69548085 20.990673,10.1083745 20.990673,10.6188851 C20.990673,11.1293957 20.5761595,11.5422894 20.0636459,11.5422894 C19.5511324,11.5422894 19.1366189,11.1293957 19.1366189,10.6188851 C19.1366189,10.1083745 19.5511324,9.69548085 20.0636459,9.69548085 Z" id="Stroke-19"></path>
                                    <path d="M25.2283784,9.69548085 C25.7408919,9.69548085 26.1554054,10.1083745 26.1554054,10.6188851 C26.1554054,11.1293957 25.7408919,11.5422894 25.2283784,11.5422894 C24.7158649,11.5422894 24.3013514,11.1293957 24.3013514,10.6188851 C24.3013514,10.1083745 24.7158649,9.69548085 25.2283784,9.69548085 Z" id="Stroke-21"></path>
                                </g>
                            </g>
                        </g>
                    </g>
                </g>
            </g>
        </g>
    </g>
</svg>