<?xml version="1.0" encoding="UTF-8"?>
<svg width="186px" height="109px" viewBox="0 0 186 109" version="1.1" xmlns="http://www.w3.org/2000/svg" xmlns:xlink="http://www.w3.org/1999/xlink">
    <!-- Generator: Sketch 52.6 (67491) - http://www.bohemiancoding.com/sketch -->
    <title>coveo-cloud-v1</title>
    <desc>Created with Sketch.</desc>
    <defs>
        <rect id="path-1" x="0.0934047539" y="0.541871921" width="145.932476" height="93.1529525" rx="1.68369231"></rect>
        <rect id="path-3" x="0.0934047539" y="0.541871921" width="145.932476" height="93.1529525" rx="1.68369231"></rect>
        <polygon id="path-5" points="0 -7.8159701e-13 107.446602 -7.8159701e-13 107.446602 78.4201681 0 78.4201681"></polygon>
        <rect id="path-7" x="0.0934047539" y="0.541871921" width="145.932476" height="93.1529525" rx="1.68369231"></rect>
    </defs>
    <g id="Page-1" stroke="none" stroke-width="1" fill="none" fill-rule="evenodd">
        <g id="login-window" transform="translate(-376.000000, -58.000000)">
            <g id="coveo-cloud-v2" transform="translate(344.000000, 58.000000)">
                <g id="coveo-cloud-v1" transform="translate(32.000000, 0.000000)">
                    <g id="Screen" transform="translate(19.922789, 7.319328)">
                        <g id="path-1-link" fill="#FFFFFF" fill-rule="nonzero">
                            <rect id="path-1" x="0.0934047539" y="0.541871921" width="145.932476" height="93.1529525" rx="1.68369231"></rect>
                        </g>
                        <g id="user-dashboard-Clipped">
                            <mask id="mask-2" fill="white">
                                <use xlink:href="#path-1"></use>
                            </mask>
                            <g id="path-1"></g>
                            <g id="user-dashboard" mask="url(#mask-2)">
                                <g transform="translate(2.000000, 0.000000)" id="sidebar">
                                    <g transform="translate(0.708738, 0.924370)">
                                        <g id="Group" fill-rule="nonzero">
                                            <rect id="Rectangle-2" fill="#0D80EF" x="23" y="0" width="118" height="2"></rect>
                                            <rect id="Rectangle-2" fill="#2C3033" x="0" y="0" width="23.4757282" height="89.6638655"></rect>
                                        </g>
                                    </g>
                                </g>
                            </g>
                        </g>
                        <g id="Path-2-Clipped">
                            <mask id="mask-4" fill="white">
                                <use xlink:href="#path-3"></use>
                            </mask>
                            <g id="path-1"></g>
                            <g id="Path-2" mask="url(#mask-4)">
                                <g transform="translate(30.000000, 7.000000)" id="Group">
                                    <g transform="translate(0.699029, 0.546218)">
                                        <g id="Mask" fill="#EFF3F7">
                                            <polygon id="path-4" points="0 -7.8159701e-13 107.446602 -7.8159701e-13 107.446602 78.4201681 0 78.4201681"></polygon>
                                        </g>
                                        <g id="Path-2-Clipped">
                                            <mask id="mask-6" fill="white">
                                                <use xlink:href="#path-5"></use>
                                            </mask>
                                            <g id="path-4"></g>
                                            <polygon id="Path-2" stroke="#0D80EF" stroke-width="3.648" fill-opacity="0.25" fill="#0D80EF" mask="url(#mask-6)" points="-7.22330097 52.5378151 9.02912621 26.6554622 42.4368932 68.2521008 54.1747573 59.9327731 61.3980583 64.5546218 91.1941748 52.5378151 111.961165 19.2605042 111.961165 83.0420451 -6.41009696 83.0420451"></polygon>
                                        </g>
                                    </g>
                                </g>
                            </g>
                        </g>
                        <g id="Group-6-Clipped">
                            <mask id="mask-8" fill="white">
                                <use xlink:href="#path-7"></use>
                            </mask>
                            <g id="path-1"></g>
                            <g id="Group-6" mask="url(#mask-8)">
                                <g transform="translate(6.000000, 11.000000)" id="Rectangle-4">
                                    <g>
                                        <rect id="Rectangle-path" fill="#0D80EF" fill-rule="nonzero" x="0.699029126" y="0.546218487" width="16.3009709" height="3" rx="1.5"></rect>
                                        <rect id="Rectangle-path" fill="#FFFFFF" fill-rule="nonzero" opacity="0.394474638" x="0.699029126" y="7.54621849" width="16.3009709" height="1.45378151" rx="0.726890755"></rect>
                                        <path d="M1.42591988,12.0462185 L13.2731093,12.0462185 C13.6745599,12.0462185 14,12.3716586 14,12.7731093 L14,12.7731093 C14,13.1745599 13.6745599,13.5 13.2731093,13.5 L1.42591988,13.5 C1.0244692,13.5 0.699029126,13.1745599 0.699029126,12.7731093 L0.699029126,12.7731093 C0.699029126,12.3716586 1.0244692,12.0462185 1.42591988,12.0462185 Z" id="Rectangle-path" fill="#FFFFFF" fill-rule="nonzero" opacity="0.394474638"></path>
                                        <path d="M1.42591988,16.5462185 L16.2731093,16.5462185 C16.6745599,16.5462185 17,16.8716586 17,17.2731093 L17,17.2731093 C17,17.6745599 16.6745599,18 16.2731093,18 L1.42591988,18 C1.0244692,18 0.699029126,17.6745599 0.699029126,17.2731093 L0.699029126,17.2731093 C0.699029126,16.8716586 1.0244692,16.5462185 1.42591988,16.5462185 Z" id="Rectangle-path" fill="#FFFFFF" fill-rule="nonzero" opacity="0.394474638"></path>
                                        <path d="M1.42591988,21.0462185 L14.2731093,21.0462185 C14.6745599,21.0462185 15,21.3716586 15,21.7731093 L15,21.7731093 C15,22.1745599 14.6745599,22.5 14.2731093,22.5 L1.42591988,22.5 C1.0244692,22.5 0.699029126,22.1745599 0.699029126,21.7731093 L0.699029126,21.7731093 C0.699029126,21.3716586 1.0244692,21.0462185 1.42591988,21.0462185 Z" id="Rectangle-path" fill="#FFFFFF" fill-rule="nonzero" opacity="0.394474638"></path>
                                        <path d="M1.42591988,25.5462185 L16.2731093,25.5462185 C16.6745599,25.5462185 17,25.8716586 17,26.2731093 L17,26.2731093 C17,26.6745599 16.6745599,27 16.2731093,27 L1.42591988,27 C1.0244692,27 0.699029126,26.6745599 0.699029126,26.2731093 L0.699029126,26.2731093 C0.699029126,25.8716586 1.0244692,25.5462185 1.42591988,25.5462185 Z" id="Rectangle-path" fill="#FFFFFF" fill-rule="nonzero" opacity="0.394474638"></path>
                                        <rect id="Rectangle-path" fill="#0D80EF" fill-rule="nonzero" x="0.699029126" y="34.5462185" width="16.3009709" height="3" rx="1.5"></rect>
                                        <path d="M1.42591988,41.5462185 L16.2731093,41.5462185 C16.6745599,41.5462185 17,41.8716586 17,42.2731093 L17,42.2731093 C17,42.6745599 16.6745599,43 16.2731093,43 L1.42591988,43 C1.0244692,43 0.699029126,42.6745599 0.699029126,42.2731093 L0.699029126,42.2731093 C0.699029126,41.8716586 1.0244692,41.5462185 1.42591988,41.5462185 Z" id="Rectangle-path" fill="#FFFFFF" fill-rule="nonzero" opacity="0.394474638"></path>
                                        <path d="M1.42591988,46.0462185 L13.2731093,46.0462185 C13.6745599,46.0462185 14,46.3716586 14,46.7731093 L14,46.7731093 C14,47.1745599 13.6745599,47.5 13.2731093,47.5 L1.42591988,47.5 C1.0244692,47.5 0.699029126,47.1745599 0.699029126,46.7731093 L0.699029126,46.7731093 C0.699029126,46.3716586 1.0244692,46.0462185 1.42591988,46.0462185 Z" id="Rectangle-path" fill="#FFFFFF" fill-rule="nonzero" opacity="0.394474638"></path>
                                        <path d="M1.42591988,50.5462185 L16.2731093,50.5462185 C16.6745599,50.5462185 17,50.8716586 17,51.2731093 L17,51.2731093 C17,51.6745599 16.6745599,52 16.2731093,52 L1.42591988,52 C1.0244692,52 0.699029126,51.6745599 0.699029126,51.2731093 L0.699029126,51.2731093 C0.699029126,50.8716586 1.0244692,50.5462185 1.42591988,50.5462185 Z" id="Rectangle-path" fill="#FFFFFF" fill-rule="nonzero" opacity="0.394474638"></path>
                                        <path d="M1.42591988,55.0462185 L14.2731093,55.0462185 C14.6745599,55.0462185 15,55.3716586 15,55.7731093 L15,55.7731093 C15,56.1745599 14.6745599,56.5 14.2731093,56.5 L1.42591988,56.5 C1.0244692,56.5 0.699029126,56.1745599 0.699029126,55.7731093 L0.699029126,55.7731093 C0.699029126,55.3716586 1.0244692,55.0462185 1.42591988,55.0462185 Z" id="Rectangle-path" fill="#FFFFFF" fill-rule="nonzero" opacity="0.394474638"></path>
                                        <path d="M1.42591988,59.5462185 L16.2731093,59.5462185 C16.6745599,59.5462185 17,59.8716586 17,60.2731093 L17,60.2731093 C17,60.6745599 16.6745599,61 16.2731093,61 L1.42591988,61 C1.0244692,61 0.699029126,60.6745599 0.699029126,60.2731093 L0.699029126,60.2731093 C0.699029126,59.8716586 1.0244692,59.5462185 1.42591988,59.5462185 Z" id="Rectangle-path" fill="#FFFFFF" fill-rule="nonzero" opacity="0.394474638"></path>
                                    </g>
                                </g>
                            </g>
                        </g>
                    </g>
                    <g id="laptop" fill="#1E253F" fill-rule="nonzero">
                        <path d="M15.4141148,102.438974 L15.4141148,6.73233156 C15.4141148,3.5549538 17.9898884,0.9791802 21.1672662,0.9791802 L164.735909,0.9791802 C167.913287,0.9791802 170.489061,3.5549538 170.489061,6.73233156 L170.489061,102.438974 C170.489061,103.408343 169.703231,104.194172 168.733862,104.194172 L146.957621,104.194172 L17.1693135,104.194172 C16.199944,104.194172 15.4141148,103.408343 15.4141148,102.438974 Z M23.3360944,8.31480284 C23.2283867,8.31480284 23.1410724,8.4021172 23.1410724,8.50982492 L23.1410724,97.3545045 C23.1410724,97.4622122 23.2283867,97.5495266 23.3360944,97.5495266 L162.76073,97.5495266 C162.868438,97.5495266 162.955752,97.4622122 162.955752,97.3545045 L162.955752,8.50982492 C162.955752,8.4021172 162.868438,8.31480284 162.76073,8.31480284 L23.3360944,8.31480284 Z" id="Combined-Shape"></path>
                        <path d="M186,106.630937 C186,106.630937 184.084398,109 144.322065,108.915391 C131.214211,108.887499 112.433786,108.886966 93.1452369,108.898786 C73.6290688,108.886965 54.8077024,108.887452 41.6779121,108.915391 C1.91560135,109 0,106.630937 0,106.630937 L93.0484123,106.630937 L186,106.630937 Z" id="Combined-Shape"></path>
                        <path d="M0.19502208,105.446405 L185.804978,105.446405 C185.912686,105.446405 186,105.533719 186,105.641427 L186,106.630937 L0,106.630937 L0,105.641427 C-1.31903915e-17,105.533719 0.0873143593,105.446405 0.19502208,105.446405 Z" id="Rectangle-5"></path>
                    </g>
                </g>
            </g>
        </g>
    </g>
</svg>