<?xml version="1.0" encoding="UTF-8"?>
<svg width="48px" height="57px" viewBox="0 0 48 57" version="1.1" xmlns="http://www.w3.org/2000/svg" xmlns:xlink="http://www.w3.org/1999/xlink">
    <!-- Generator: Sketch 49.3 (51167) - http://www.bohemiancoding.com/sketch -->
    <title>getting started</title>
    <desc>Created with Sketch.</desc>
    <defs></defs>
    <g id="Page-1" stroke="none" stroke-width="1" fill="none" fill-rule="evenodd">
        <g id="Resources-Salesforce" transform="translate(-243.000000, -1332.000000)" fill="#0D80EF" fill-rule="nonzero">
            <g id="links-with-icons" transform="translate(229.000000, 1225.000000)">
                <g id="documentation" transform="translate(14.000000, 98.000000)">
                    <g id="content">
                        <g id="getting-started" transform="translate(0.000000, 9.000000)">
                            <g id="Group">
                                <path d="M42.1,56.8 L5.9,56.8 C2.7,56.8 0,54.2 0,50.9 L0,5.9 C0,2.6 2.6,0 5.9,0 L37.2,0 C37.6,0 38,0.2 38.2,0.4 L47.5,9.7 C47.8,10 47.9,10.4 47.9,10.7 L47.9,50.8 C48,54.1 45.4,56.8 42.1,56.8 Z M5.9,3 C4.3,3 3,4.3 3,5.9 L3,50.9 C3,52.5 4.3,53.8 5.9,53.8 L42.1,53.8 C43.7,53.8 45,52.5 45,50.9 L45,11.4 L36.6,3 L5.9,3 Z" id="Shape"></path>
                                <path d="M46,12.7 L37,12.7 C36.2,12.7 35.5,12 35.5,11.2 L35.5,1.9 C35.5,1.3 35.9,0.8 36.4,0.5 C37,0.3 37.6,0.4 38,0.8 L47,9.8 C47.3,10.1 47.4,10.5 47.4,10.8 L47.4,11.2 C47.4,12 46.8,12.7 46,12.7 Z M38.5,9.7 L42.8,9.7 L38.5,5.4 L38.5,9.7 Z" id="Shape"></path>
                                <rect id="Rectangle-path" x="20.9" y="23" width="16.1" height="3"></rect>
                                <rect id="Rectangle-path" x="20.9" y="32.4" width="16.1" height="3"></rect>
                                <rect id="Rectangle-path" x="20.9" y="41.8" width="16.1" height="3"></rect>
                            </g>
                            <rect id="Rectangle-path" x="9.7" y="23" width="5.7" height="3"></rect>
                            <rect id="Rectangle-path" x="9.7" y="32.4" width="5.7" height="3"></rect>
                            <rect id="Rectangle-path" x="9.7" y="41.8" width="5.7" height="3"></rect>
                        </g>
                    </g>
                </g>
            </g>
        </g>
    </g>
</svg>