<?xml version="1.0" encoding="UTF-8"?>
<svg width="48px" height="57px" viewBox="0 0 48 57" version="1.1" xmlns="http://www.w3.org/2000/svg" xmlns:xlink="http://www.w3.org/1999/xlink">
    <!-- Generator: Sketch 48.2 (47327) - http://www.bohemiancoding.com/sketch -->
    <title>documentation</title>
    <desc>Created with Sketch.</desc>
    <defs></defs>
    <g id="Resources-Salesforce" stroke="none" stroke-width="1" fill="none" fill-rule="evenodd" transform="translate(-243.000000, -1331.000000)">
        <g id="links-with-icons" transform="translate(230.000000, 1225.000000)" fill="#0D80EF" fill-rule="nonzero">
            <g id="documentation" transform="translate(13.000000, 98.000000)">
                <g transform="translate(0.000000, 8.000000)">
                    <path d="M41.5,56.4 L6,56.4 C2.8,56.4 0.2,53.8 0.2,50.6 L0.2,6.6 C0.2,3.4 2.8,0.8 6,0.8 L36.7,0.8 C37.1,0.8 37.5,1 37.7,1.2 L46.8,10.3 C47.1,10.6 47.2,10.9 47.2,11.3 L47.2,50.6 C47.3,53.8 44.7,56.4 41.5,56.4 Z M6,3.7 C4.4,3.7 3.1,5 3.1,6.6 L3.1,50.7 C3.1,52.3 4.4,53.6 6,53.6 L41.5,53.6 C43.1,53.6 44.4,52.3 44.4,50.7 L44.4,12 L36.1,3.7 L6,3.7 Z" id="Shape"></path>
                    <path d="M45.3,13.3 L36.6,13.3 C35.8,13.3 35.2,12.7 35.2,11.9 L35.2,2.8 C35.2,2.2 35.6,1.7 36.1,1.5 C36.6,1.3 37.3,1.4 37.7,1.8 L46.4,10.5 C46.7,10.8 46.8,11.1 46.8,11.5 L46.8,11.9 C46.7,12.6 46.1,13.3 45.3,13.3 Z M38,10.4 L42.2,10.4 L38,6.2 L38,10.4 Z" id="Shape"></path>
                    <rect id="Rectangle-path" x="9.3" y="23.4" width="29.8" height="2.9"></rect>
                    <rect id="Rectangle-path" x="9.3" y="32.6" width="29.8" height="2.9"></rect>
                    <rect id="Rectangle-path" x="9.3" y="41.8" width="29.8" height="2.9"></rect>
                    <rect id="Rectangle-path" x="9.3" y="14.1" width="15" height="2.9"></rect>
                </g>
            </g>
        </g>
    </g>
</svg>