<?xml version="1.0" encoding="UTF-8"?>
<svg width="73px" height="65px" viewBox="0 0 73 65" version="1.1" xmlns="http://www.w3.org/2000/svg" xmlns:xlink="http://www.w3.org/1999/xlink">
    <!-- Generator: Sketch 49.1 (51147) - http://www.bohemiancoding.com/sketch -->
    <title>icon</title>
    <desc>Created with Sketch.</desc>
    <defs></defs>
    <g id="Page-1" stroke="none" stroke-width="1" fill="none" fill-rule="evenodd">
        <g id="Resources-Sitecore" transform="translate(-230.000000, -738.000000)" fill="#0D80EF">
            <g id="links-with-icons" transform="translate(230.000000, 635.000000)">
                <g id="online-help" transform="translate(0.000000, 98.000000)">
                    <g id="icon" transform="translate(0.000000, 5.000000)">
                        <path d="M15.8641026,33.4519293 L9.42115385,39.8804662 L9.42115385,34.4385209 C9.42061173,33.6680059 8.79472096,33.0435152 8.02247863,33.0429743 L3.60628205,33.0429743 C3.15974598,33.0424339 2.79789201,32.6813893 2.79735043,32.2358521 L2.79735043,3.59919614 C2.79789201,3.15365889 3.15974598,2.79261433 3.60628205,2.79207395 L49.9699573,2.79207395 C50.4166523,2.79315411 50.7783488,3.15448002 50.7788889,3.60017685 L50.7788889,22.3071704 L53.5762393,22.3071704 L53.5762393,3.59821543 C53.5740715,1.61148968 51.9601545,0.00162152361 49.9689744,0 L3.60628205,0 C1.6154857,0.00216200822 0.00216685509,1.61187215 0,3.59821543 L0,32.2348714 C0.00162515881,34.2215977 1.61510238,35.8319046 3.60628205,35.8340675 L6.62282051,35.8340675 L6.62282051,43.2491961 C6.62094285,43.8149708 6.96302686,44.3253976 7.48777778,44.5398071 C8.01061959,44.7539925 8.61122251,44.6341406 9.01128205,44.2357878 L17.4318376,35.8340675 L23.3361538,35.8340675 L23.3361538,33.0429743 L16.8489744,33.0429743 C16.4792115,33.0430458 16.1247422,33.1902345 15.8641026,33.4519293 Z" id="Shape" fill-rule="nonzero"></path>
                        <path d="M16.5580342,17.9175241 C16.558577,19.2963856 17.6792151,20.4137854 19.0611678,20.4134244 C20.4431206,20.4130633 21.5631721,19.2950783 21.5629912,17.9162166 C21.5628104,16.537355 20.4424656,15.4196625 19.0605128,15.4196624 C17.6787223,15.4212846 16.5591174,16.5388239 16.5580342,17.9175241 Z" id="Shape" fill-rule="nonzero"></path>
                        <path d="M34.2198718,17.9175241 C34.2204146,19.296258 35.3408531,20.4136048 36.7226779,20.4134242 C38.1045028,20.4132437 39.2246479,19.2956041 39.2248288,17.9168702 C39.2250098,16.5381362 38.1051581,15.420204 36.7233333,15.4196624 C35.3413833,15.4212836 34.2214967,16.5386653 34.2198718,17.9175241 Z" id="Shape" fill-rule="nonzero"></path>
                        <path d="M27.8919231,20.4144051 C28.9040812,20.4144051 29.8165757,19.8060596 30.2039119,18.8730391 C30.591248,17.9400186 30.3771466,16.8660656 29.6614427,16.1519626 C28.9457388,15.4378596 27.8693781,15.2242371 26.934266,15.6107068 C25.9991538,15.9971766 25.3894444,16.90763 25.3894444,17.9175241 C25.3910693,19.2958413 26.5105159,20.4127839 27.8919231,20.4144051 Z" id="Shape" fill-rule="nonzero"></path>
                        <path d="M69.8045726,29.1188585 L33.1765812,29.1188585 C31.4338644,29.1210199 30.0216534,30.530072 30.0194872,32.2688907 L30.0194872,54.8928296 C30.0243591,56.6295736 31.4359376,58.0353637 33.1765812,58.0369775 L58.7547436,58.0369775 L65.3176068,64.5851608 C65.7215568,64.988118 66.3289925,65.1086466 66.8567252,64.8905556 C67.3844579,64.6724647 67.7285858,64.1586927 67.7286752,63.5887621 L67.7286752,58.0379582 L69.8045726,58.0379582 C71.5472895,58.0357968 72.9595005,56.6267447 72.9616667,54.887926 L72.9616667,32.2688907 C72.9595005,30.530072 71.5472895,29.1210199 69.8045726,29.1188585 Z M32.8473077,32.2688907 C32.8473077,32.0863615 32.9956086,31.9383923 33.178547,31.9383923 L69.8045726,31.9383923 C69.9875111,31.9383923 70.135812,32.0863615 70.135812,32.2688907 L70.135812,54.8928296 C70.135812,55.0753588 69.9875111,55.223328 69.8045726,55.223328 L66.3162393,55.223328 C65.5366215,55.2244084 64.9048862,55.8547305 64.9038034,56.6326045 L64.9038034,60.1945338 L60.3382051,55.6391479 C60.0741826,55.3720792 59.7135757,55.2222213 59.3376068,55.223328 L33.1765812,55.223328 C32.9936428,55.223328 32.8453419,55.0753588 32.8453419,54.8928296 L32.8473077,32.2688907 Z" id="Shape" fill-rule="nonzero"></path>
                        <text id="?" font-family="Lato-Bold, Lato" font-size="20" font-weight="bold">
                            <tspan x="46.6" y="51">?</tspan>
                        </text>
                    </g>
                </g>
            </g>
        </g>
    </g>
</svg>