<?xml version="1.0" encoding="UTF-8"?>
<svg width="70px" height="70px" viewBox="0 0 70 70" version="1.1" xmlns="http://www.w3.org/2000/svg" xmlns:xlink="http://www.w3.org/1999/xlink">
    <!-- Generator: Sketch 48.2 (47327) - http://www.bohemiancoding.com/sketch -->
    <title>Page 1</title>
    <desc>Created with Sketch.</desc>
    <defs>
        <polygon id="path-1" points="5.96590909e-05 0.0626420455 69.8011364 0.0626420455 69.8011364 40.4265114 5.96590909e-05 40.4265114"></polygon>
        <polygon id="path-3" points="0 69.937358 69.8011364 69.937358 69.8011364 0.198863636 0 0.198863636"></polygon>
    </defs>
    <g id="Page-1" stroke="none" stroke-width="1" fill="none" fill-rule="evenodd">
        <g>
            <path d="M34.9953864,32.0674375 C31.5051307,32.0674375 28.6655568,34.9070114 28.6655568,38.397267 C28.6655568,41.8875227 31.5051307,44.7270966 34.9953864,44.7270966 C38.485642,44.7270966 41.3252159,41.8875227 41.3252159,38.397267 C41.3252159,34.9070114 38.485642,32.0674375 34.9953864,32.0674375 M34.9953864,47.7100511 C29.8603295,47.7100511 25.6826023,43.5323239 25.6826023,38.397267 C25.6826023,33.2622102 29.8603295,29.084483 34.9953864,29.084483 C40.1304432,29.084483 44.3081705,33.2622102 44.3081705,38.397267 C44.3081705,43.5323239 40.1304432,47.7100511 34.9953864,47.7100511" id="Fill-1" fill="#0D80EF"></path>
            <path d="M22.691375,66.9544034 L47.299358,66.9544034 C46.3151818,59.8249432 41.1433352,54.4450852 34.9954659,54.4450852 C28.8473977,54.4450852 23.6755511,59.8249432 22.691375,66.9544034 M48.9352102,69.937358 L21.0555227,69.937358 C20.6470568,69.937358 20.2566875,69.7699148 19.9750966,69.4740057 C19.6935057,69.1782955 19.5455511,68.7799716 19.5658352,68.3721023 C20.0355511,58.8898864 26.8130227,51.4621307 34.9954659,51.4621307 C43.1777102,51.4621307 49.9551818,58.8898864 50.4248977,68.3721023 C50.4451818,68.7799716 50.2972273,69.1782955 50.0156364,69.4740057 C49.7342443,69.7699148 49.3436761,69.937358 48.9352102,69.937358" id="Fill-3" fill="#0D80EF"></path>
            <path d="M15.653571,35.6265795 C13.4143665,35.6265795 11.5927756,37.4481705 11.5927756,39.6871761 C11.5927756,41.9263807 13.4143665,43.7479716 15.653571,43.7479716 C17.8927756,43.7479716 19.7143665,41.9263807 19.7143665,39.6871761 C19.7143665,37.4481705 17.8927756,35.6265795 15.653571,35.6265795 M15.653571,46.7309261 C11.7695653,46.7309261 8.60982102,43.5711818 8.60982102,39.6871761 C8.60982102,35.8033693 11.7695653,32.643625 15.653571,32.643625 C19.5375767,32.643625 22.697321,35.8033693 22.697321,39.6871761 C22.697321,43.5711818 19.5375767,46.7309261 15.653571,46.7309261" id="Fill-5" fill="#0D80EF"></path>
            <path d="M18.5285028,62.5098807 L5.75787784,62.5098807 C5.34941193,62.5098807 4.95884375,62.3424375 4.6774517,62.0465284 C4.3958608,61.7508182 4.24790625,61.3524943 4.26819034,60.944625 C4.61301989,53.9828068 9.61424148,48.5291705 15.6535313,48.5291705 C18.8061165,48.5291705 21.7375653,49.9770966 23.9075653,52.605875 L21.6071108,54.5048239 C20.0140142,52.5750511 17.899696,51.512125 15.6535313,51.512125 C11.6482188,51.512125 8.25540625,54.924625 7.42594602,59.5269261 L18.5285028,59.5269261 L18.5285028,62.5098807 Z" id="Fill-7" fill="#0D80EF"></path>
            <path d="M54.3372017,35.6265795 C52.0979972,35.6265795 50.2764062,37.4481705 50.2764062,39.6871761 C50.2764062,41.9263807 52.0979972,43.7479716 54.3372017,43.7479716 C56.5764063,43.7479716 58.3979972,41.9263807 58.3979972,39.6871761 C58.3979972,37.4481705 56.5764063,35.6265795 54.3372017,35.6265795 M54.3372017,46.7309261 C50.453196,46.7309261 47.2934517,43.5711818 47.2934517,39.6871761 C47.2934517,35.8033693 50.453196,32.643625 54.3372017,32.643625 C58.2212074,32.643625 61.3809517,35.8033693 61.3809517,39.6871761 C61.3809517,43.5711818 58.2212074,46.7309261 54.3372017,46.7309261" id="Fill-9" fill="#0D80EF"></path>
            <path d="M64.2329545,62.5098807 L51.4623295,62.5098807 L51.4623295,59.5269261 L62.5648864,59.5269261 C61.7354261,54.924625 58.3426136,51.512125 54.3373011,51.512125 C52.0909375,51.512125 49.9766193,52.5750511 48.3837216,54.5048239 L46.083267,52.605875 C48.253267,49.9770966 51.184517,48.5291705 54.3373011,48.5291705 C60.3765909,48.5291705 65.3778125,53.9828068 65.722642,60.944625 C65.7429261,61.3524943 65.5949716,61.7508182 65.3133807,62.0465284 C65.0317898,62.3424375 64.6412216,62.5098807 64.2329545,62.5098807" id="Fill-11" fill="#0D80EF"></path>
            <g id="Group-15" transform="translate(0.000000, 0.136222)">
                <mask id="mask-2" fill="white">
                    <use xlink:href="#path-1"></use>
                </mask>
                <g id="Clip-14"></g>
                <path d="M2.4208267,40.4265114 C0.859747159,38.8731875 5.96590909e-05,36.8050057 5.96590909e-05,34.6027898 L5.96590909e-05,8.27821591 C5.96590909e-05,3.74810227 3.68540057,0.0625625 8.2155142,0.0625625 L61.5855426,0.0625625 C66.1156562,0.0625625 69.801196,3.74810227 69.801196,8.27821591 L69.801196,34.6027898 C69.801196,36.5176477 69.1278437,38.3821932 67.9052301,39.8525909 L65.6115369,37.9454886 C66.3896903,37.0096364 66.8182415,35.8224205 66.8182415,34.6027898 L66.8182415,8.27821591 C66.8182415,5.39290341 64.4708551,3.04551705 61.5855426,3.04551705 L8.2155142,3.04551705 C5.3302017,3.04551705 2.9830142,5.39290341 2.9830142,8.27821591 L2.9830142,34.6027898 C2.9830142,36.005375 3.5304858,37.3226477 4.52480398,38.3119943 L2.4208267,40.4265114 Z" id="Fill-13" fill="#0D80EF" mask="url(#mask-2)"></path>
            </g>
            <mask id="mask-4" fill="white">
                <use xlink:href="#path-3"></use>
            </mask>
            <g id="Clip-17"></g>
            <polygon id="Fill-16" fill="#0D80EF" mask="url(#mask-4)" points="35.3977273 23.3195455 60.3901136 23.3195455 60.3901136 20.3365909 35.3977273 20.3365909"></polygon>
            <polygon id="Fill-18" fill="#0D80EF" mask="url(#mask-4)" points="35.3977273 14.1718182 60.3901136 14.1718182 60.3901136 11.1888636 35.3977273 11.1888636"></polygon>
            <path d="M11.5340909,24.2613636 L26.4488636,24.2613636 L26.4488636,13.5227273 L11.5340909,13.5227273 L11.5340909,24.2613636 Z M27.9403409,27.2443182 L10.0426136,27.2443182 C9.21892045,27.2443182 8.55113636,26.5765341 8.55113636,25.7528409 L8.55113636,12.03125 C8.55113636,11.2075568 9.21892045,10.5397727 10.0426136,10.5397727 L27.9403409,10.5397727 C28.7640341,10.5397727 29.4318182,11.2075568 29.4318182,12.03125 L29.4318182,25.7528409 C29.4318182,26.5765341 28.7640341,27.2443182 27.9403409,27.2443182 Z" id="Fill-19" fill="#0D80EF" mask="url(#mask-4)"></path>
        </g>
    </g>
</svg>