<?xml version="1.0" encoding="UTF-8"?>
<svg width="62px" height="54px" viewBox="0 0 62 54" version="1.1" xmlns="http://www.w3.org/2000/svg" xmlns:xlink="http://www.w3.org/1999/xlink">
    <!-- Generator: Sketch 57.1 (83088) - https://sketch.com -->
    <title>resources</title>
    <desc>Created with Sketch.</desc>
    <g id="Page-1" stroke="none" stroke-width="1" fill="none" fill-rule="evenodd">
        <g id="C4SF-summer-release_resources_V2" transform="translate(-1086.000000, -306.000000)" fill="#0D80EF" fill-rule="nonzero">
            <g id="Group-2" transform="translate(249.000000, 306.000000)">
                <g id="Group-8" transform="translate(77.000000, 0.000000)">
                    <g id="resources" transform="translate(760.000000, 0.000000)">
                        <g id="Group-6">
                            <g id="dev_knowledge_base">
                                <path d="M59.9,31.3 C59.8,31.3 59.8,31.3 59.7,31.3 L48.1,29.9 C45.9,29.6 43.7,29.9 41.7,30.7 C41.5,30.8 41.3,30.9 41,30.9 L41,30.9 C40.8,30.9 40.5,30.8 40.3,30.7 C38.8,30.1 37.1,29.8 35.5,29.8 C35,29.8 34.4,29.8 33.9,29.9 L22.3,31.3 C21.9,31.3 21.5,31.2 21.2,31 C20.9,30.7 20.7,30.4 20.7,30 L20.7,3 C20.7,2.3 21.2,1.7 21.9,1.6 L33.7,0.2 C36.2,-0.1 38.6,0.3 40.9,1.2 C43.2,0.3 45.7,-0.1 48.1,0.2 L59.9,1.6 C60.6,1.7 61.1,2.3 61.1,3 L61.1,30 C61.1,30.4 60.9,30.8 60.6,31 C60.5,31.2 60.2,31.3 59.9,31.3 Z M46.6,27.1 C47.2,27.1 47.9,27.1 48.5,27.2 L58.5,28.4 L58.5,4.2 L48,2.9 C45.8,2.6 43.7,3 41.7,3.9 C41.3,4.1 40.9,4.1 40.5,3.9 C38.5,3 36.3,2.6 34.2,2.9 L23.6,4.1 L23.6,28.3 L33.6,27.1 C34.2,27 34.9,27 35.5,27 C37.4,27 39.2,27.3 41,28 C42.8,27.4 44.7,27.1 46.6,27.1 Z" id="Shape"></path>
                                <g id="Group" transform="translate(0.000000, 3.000000)">
                                    <g transform="translate(13.000000, 40.000000)" id="Shape">
                                        <g transform="translate(9.000000, 0.000000)">
                                            <path d="M1.7,10 C0.9,10 0.3,9.4 0.3,8.6 L0.3,2.1 C0.3,1.3 0.9,0.7 1.7,0.7 C2.5,0.7 3.1,1.3 3.1,2.1 L3.1,8.6 C3,9.4 2.4,10 1.7,10 Z"></path>
                                            <path d="M11,10 C10.2,10 9.6,9.4 9.6,8.6 L9.6,2.1 C9.6,1.3 10.2,0.7 11,0.7 C11.8,0.7 12.4,1.3 12.4,2.1 L12.4,8.6 C12.3,9.4 11.7,10 11,10 Z"></path>
                                        </g>
                                        <path d="M28.9,10.8 L1.7,10.8 C0.9,10.8 0.3,10.2 0.3,9.4 C0.3,8.6 0.9,8 1.7,8 L28.9,8 C29.7,8 30.3,8.6 30.3,9.4 C30.3,10.2 29.7,10.8 28.9,10.8 Z"></path>
                                    </g>
                                    <path d="M53.5,42.5 L3.2,42.5 C1.6,42.5 0.3,41.2 0.3,39.6 L0.3,3.9 C0.3,2.3 1.6,1 3.2,1 L17,0.9 C17,0.9 17,0.9 17,0.9 C17.8,0.9 18.4,1.5 18.4,2.3 C18.4,3.1 17.8,3.7 17,3.7 L3.2,3.8 C3.1,3.8 3,3.9 3,4 L3,39.7 C3,39.8 3.1,39.9 3.2,39.9 L53.5,39.9 C53.6,39.9 53.7,39.8 53.7,39.7 L53.7,30.9 C53.7,30.1 54.3,29.5 55.1,29.5 C55.1,29.5 55.1,29.5 55.1,29.5 C55.9,29.5 56.5,30.1 56.5,30.9 L56.5,39.7 C56.4,41.2 55.1,42.5 53.5,42.5 Z" id="Shape"></path>
                                </g>
                                <polygon id="Rectangle-path" points="30 10 53 10 53 12.9 30 12.9"></polygon>
                                <polygon id="Rectangle-path" points="30 18.2 53 18.2 53 21.1 30 21.1"></polygon>
                            </g>
                        </g>
                    </g>
                </g>
            </g>
        </g>
    </g>
</svg>